# xmcd
#
# Track frame offsets:
#	150
#	15389
#	31373
#	46576
#	62342
#	81415
#	94369
#	111782
#	128381
#	140243
#	157716
#	175145
#	191482
#	205863
#	226172
#	241976
#
# Disc length: 3367 seconds
#
# Revision: 0
# Processed by: cddbd v1.5.2PL0 Copyright (c) Steve Scherf et al.
# Submitted via: audiograbber 1.83.01
#
DISCID=c10d2510
DTITLE=Aléx Silveira - Poncho y Pampa
DYEAR=2004
DGENRE=Gaúcha
TTITLE0=Luiz Marenco e Jari Terres - Moura Negra
TTITLE1=Joca Martins - Poncho y Pampa
TTITLE2=Luiz Marenco - Estampa Domingueira
TTITLE3=Jari Terres - Ainda existem essas tropas
TTITLE4=Jairo Lambari Fernandes - Se as estâncias terminarem
TTITLE5=Joca Martins - Versos de campo
TTITLE6=Luiz Marenco - O Silêncio
TTITLE7=Jari Terres - Meu verso a Nilson Souza
TTITLE8=Mateus Leal e André Teixeira - De campo e cidade
TTITLE9=Jairo Lambari Fernandes - Paisagem de primeira
TTITLE10=Alma Musiqueira - Da simplicidade do meu verso
TTITLE11=Jari Terres - Um retrato do Berega
TTITLE12=Joca Martins - Pra se falar de cavalo
TTITLE13=Luiz Marenco - De terra, campo e galpão
TTITLE14=Jari Terres - Tempo de seca
TTITLE15=Xirú Antunes e Aléx Silveira - Oração do Ginete
EXTD=
EXTT0=
EXTT1=
EXTT2=
EXTT3=
EXTT4=
EXTT5=
EXTT6=
EXTT7=
EXTT8=
EXTT9=
EXTT10=
EXTT11=
EXTT12=
EXTT13=
EXTT14=
EXTT15=
PLAYORDER=
